<svg xmlns="http://www.w3.org/2000/svg" width="900" height="1420" viewBox="0 0 900 1420"><defs><linearGradient id="bg2" x1="0" y1="0" x2="1" y2="1"><stop offset="0" stop-color="#16161b"/><stop offset="1" stop-color="#0f1013"/></linearGradient></defs><rect width="900" height="1420" fill="url(#bg2)"/><text x="56" y="62" fill="#e8e8ed" font-family="Manrope,Arial,sans-serif" font-size="26" font-weight="800">HOPLANE / metaphor study 02</text><text x="56" y="90" fill="#85858f" font-family="DM Mono,monospace" font-size="13">10 new territories · beyond lane / arrow / V</text><g transform="translate(48 126)"><rect width="380" height="214" rx="16" fill="#19191e" stroke="#2b2b32"/><rect x="0" y="0" width="380" height="4" rx="2" fill="#C4B5FD" opacity=".9"/><text x="24" y="32" fill="#C4B5FD" font-family="DM Mono,monospace" font-size="12" letter-spacing="1">01 / RELAY</text><text x="24" y="52" fill="#8f8f9c" font-family="Manrope,Arial,sans-serif" font-size="12">контекст передаётся дальше</text><g transform="translate(34 78) scale(1.5)"><circle cx="10" cy="24" r="8" fill="#C4B5FD"/><circle cx="38" cy="24" r="8" fill="#D8F3FF"/><path d="M18 24 H30" stroke="#8BD5E8" stroke-width="6" stroke-linecap="round"/><path d="M25 18 L31 24 L25 30" fill="none" stroke="#8BD5E8" stroke-width="5" stroke-linecap="round" stroke-linejoin="round"/></g><text x="112" y="121" fill="#e8e8ed" font-family="Manrope,Arial,sans-serif" font-size="24" font-weight="800" letter-spacing="1">HOP<tspan fill="#C4B5FD">LANE</tspan></text><text x="112" y="145" fill="#6f6f79" font-family="DM Mono,monospace" font-size="11">same project / new context</text><rect x="112" y="166" width="15" height="15" rx="4" fill="#C4B5FD" stroke="#3a3a43"/><rect x="134" y="166" width="15" height="15" rx="4" fill="#D8F3FF" stroke="#3a3a43"/><rect x="156" y="166" width="15" height="15" rx="4" fill="#19191e" stroke="#3a3a43"/></g><g transform="translate(456 126)"><rect width="380" height="214" rx="16" fill="#19191e" stroke="#2b2b32"/><rect x="0" y="0" width="380" height="4" rx="2" fill="#8BD5E8" opacity=".9"/><text x="24" y="32" fill="#8BD5E8" font-family="DM Mono,monospace" font-size="12" letter-spacing="1">02 / PASSPORT</text><text x="24" y="52" fill="#8f8f9c" font-family="Manrope,Arial,sans-serif" font-size="12">один проект, много сред</text><g transform="translate(34 78) scale(1.5)"><rect x="4" y="3" width="40" height="44" rx="7" fill="none" stroke="#8BD5E8" stroke-width="5"/><circle cx="24" cy="18" r="7" fill="none" stroke="#D8F3FF" stroke-width="4"/><path d="M13 35 C15 27 33 27 35 35" fill="none" stroke="#BCA7FF" stroke-width="5" stroke-linecap="round"/><circle cx="34" cy="10" r="4" fill="#BCA7FF"/></g><text x="112" y="121" fill="#e8e8ed" font-family="Manrope,Arial,sans-serif" font-size="24" font-weight="800" letter-spacing="1">HOP<tspan fill="#8BD5E8">LANE</tspan></text><text x="112" y="145" fill="#6f6f79" font-family="DM Mono,monospace" font-size="11">same project / new context</text><rect x="112" y="166" width="15" height="15" rx="4" fill="#8BD5E8" stroke="#3a3a43"/><rect x="134" y="166" width="15" height="15" rx="4" fill="#D8F3FF" stroke="#3a3a43"/><rect x="156" y="166" width="15" height="15" rx="4" fill="#19191e" stroke="#3a3a43"/></g><g transform="translate(48 372)"><rect width="380" height="214" rx="16" fill="#19191e" stroke="#2b2b32"/><rect x="0" y="0" width="380" height="4" rx="2" fill="#9FAFE5" opacity=".9"/><text x="24" y="32" fill="#9FAFE5" font-family="DM Mono,monospace" font-size="12" letter-spacing="1">03 / ADAPTER</text><text x="24" y="52" fill="#8f8f9c" font-family="Manrope,Arial,sans-serif" font-size="12">совместимость без настройки</text><g transform="translate(34 78) scale(1.5)"><path d="M10 14 V8 H19 V14 M29 14 V8 H38 V14" stroke="#9FAFE5" stroke-width="6" stroke-linecap="round"/><rect x="8" y="14" width="32" height="24" rx="8" fill="none" stroke="#D8F3FF" stroke-width="5"/><path d="M17 26 H31" stroke="#BCA7FF" stroke-width="5" stroke-linecap="round"/><circle cx="17" cy="26" r="3" fill="#8BD5E8"/></g><text x="112" y="121" fill="#e8e8ed" font-family="Manrope,Arial,sans-serif" font-size="24" font-weight="800" letter-spacing="1">HOP<tspan fill="#9FAFE5">LANE</tspan></text><text x="112" y="145" fill="#6f6f79" font-family="DM Mono,monospace" font-size="11">same project / new context</text><rect x="112" y="166" width="15" height="15" rx="4" fill="#9FAFE5" stroke="#3a3a43"/><rect x="134" y="166" width="15" height="15" rx="4" fill="#D8F3FF" stroke="#3a3a43"/><rect x="156" y="166" width="15" height="15" rx="4" fill="#19191e" stroke="#3a3a43"/></g><g transform="translate(456 372)"><rect width="380" height="214" rx="16" fill="#19191e" stroke="#2b2b32"/><rect x="0" y="0" width="380" height="4" rx="2" fill="#BCA7FF" opacity=".9"/><text x="24" y="32" fill="#BCA7FF" font-family="DM Mono,monospace" font-size="12" letter-spacing="1">04 / ZIPPER</text><text x="24" y="52" fill="#8f8f9c" font-family="Manrope,Arial,sans-serif" font-size="12">разрыв закрывается</text><g transform="translate(34 78) scale(1.5)"><path d="M9 5 L20 16 L9 27 L20 38 L9 47" fill="none" stroke="#BCA7FF" stroke-width="6" stroke-linecap="round" stroke-linejoin="round"/><path d="M39 5 L28 16 L39 27 L28 38 L39 47" fill="none" stroke="#8BD5E8" stroke-width="6" stroke-linecap="round" stroke-linejoin="round"/><path d="M20 16 H28 M20 38 H28" stroke="#D8F3FF" stroke-width="5" stroke-linecap="round"/></g><text x="112" y="121" fill="#e8e8ed" font-family="Manrope,Arial,sans-serif" font-size="24" font-weight="800" letter-spacing="1">HOP<tspan fill="#BCA7FF">LANE</tspan></text><text x="112" y="145" fill="#6f6f79" font-family="DM Mono,monospace" font-size="11">same project / new context</text><rect x="112" y="166" width="15" height="15" rx="4" fill="#BCA7FF" stroke="#3a3a43"/><rect x="134" y="166" width="15" height="15" rx="4" fill="#D8F3FF" stroke="#3a3a43"/><rect x="156" y="166" width="15" height="15" rx="4" fill="#19191e" stroke="#3a3a43"/></g><g transform="translate(48 618)"><rect width="380" height="214" rx="16" fill="#19191e" stroke="#2b2b32"/><rect x="0" y="0" width="380" height="4" rx="2" fill="#6BAEFF" opacity=".9"/><text x="24" y="32" fill="#6BAEFF" font-family="DM Mono,monospace" font-size="12" letter-spacing="1">05 / HOP DOT</text><text x="24" y="52" fill="#8f8f9c" font-family="Manrope,Arial,sans-serif" font-size="12">маленький прыжок между состояниями</text><g transform="translate(34 78) scale(1.5)"><circle cx="10" cy="34" r="7" fill="#6BAEFF"/><circle cx="38" cy="16" r="7" fill="#D8F3FF"/><path d="M14 29 C20 8 29 8 34 21" fill="none" stroke="#BCA7FF" stroke-width="5" stroke-linecap="round" stroke-dasharray="2 7"/></g><text x="112" y="121" fill="#e8e8ed" font-family="Manrope,Arial,sans-serif" font-size="24" font-weight="800" letter-spacing="1">HOP<tspan fill="#6BAEFF">LANE</tspan></text><text x="112" y="145" fill="#6f6f79" font-family="DM Mono,monospace" font-size="11">same project / new context</text><rect x="112" y="166" width="15" height="15" rx="4" fill="#6BAEFF" stroke="#3a3a43"/><rect x="134" y="166" width="15" height="15" rx="4" fill="#D8F3FF" stroke="#3a3a43"/><rect x="156" y="166" width="15" height="15" rx="4" fill="#19191e" stroke="#3a3a43"/></g><g transform="translate(456 618)"><rect width="380" height="214" rx="16" fill="#19191e" stroke="#2b2b32"/><rect x="0" y="0" width="380" height="4" rx="2" fill="#D8F3FF" opacity=".9"/><text x="24" y="32" fill="#D8F3FF" font-family="DM Mono,monospace" font-size="12" letter-spacing="1">06 / PAPER PLANE</text><text x="24" y="52" fill="#8f8f9c" font-family="Manrope,Arial,sans-serif" font-size="12">лёгкая передача проекта</text><g transform="translate(34 78) scale(1.5)"><path d="M4 23 L45 5 L31 43 L22 29 Z" fill="none" stroke="#D8F3FF" stroke-width="5" stroke-linejoin="round"/><path d="M4 23 L22 29 L45 5" fill="none" stroke="#8BD5E8" stroke-width="5" stroke-linecap="round" stroke-linejoin="round"/><path d="M22 29 L22 39" stroke="#BCA7FF" stroke-width="5" stroke-linecap="round"/></g><text x="112" y="121" fill="#e8e8ed" font-family="Manrope,Arial,sans-serif" font-size="24" font-weight="800" letter-spacing="1">HOP<tspan fill="#D8F3FF">LANE</tspan></text><text x="112" y="145" fill="#6f6f79" font-family="DM Mono,monospace" font-size="11">same project / new context</text><rect x="112" y="166" width="15" height="15" rx="4" fill="#D8F3FF" stroke="#3a3a43"/><rect x="134" y="166" width="15" height="15" rx="4" fill="#D8F3FF" stroke="#3a3a43"/><rect x="156" y="166" width="15" height="15" rx="4" fill="#19191e" stroke="#3a3a43"/></g><g transform="translate(48 864)"><rect width="380" height="214" rx="16" fill="#19191e" stroke="#2b2b32"/><rect x="0" y="0" width="380" height="4" rx="2" fill="#A9C7FF" opacity=".9"/><text x="24" y="32" fill="#A9C7FF" font-family="DM Mono,monospace" font-size="12" letter-spacing="1">07 / SWITCHYARD</text><text x="24" y="52" fill="#8f8f9c" font-family="Manrope,Arial,sans-serif" font-size="12">один источник, разные выходы</text><g transform="translate(34 78) scale(1.5)"><path d="M7 10 H17 L36 38 H45 M7 38 H17 L36 10 H45" fill="none" stroke="#A9C7FF" stroke-width="5" stroke-linecap="round" stroke-linejoin="round"/><circle cx="7" cy="10" r="4" fill="#D8F3FF"/><circle cx="7" cy="38" r="4" fill="#D8F3FF"/><circle cx="45" cy="10" r="4" fill="#BCA7FF"/><circle cx="45" cy="38" r="4" fill="#8BD5E8"/></g><text x="112" y="121" fill="#e8e8ed" font-family="Manrope,Arial,sans-serif" font-size="24" font-weight="800" letter-spacing="1">HOP<tspan fill="#A9C7FF">LANE</tspan></text><text x="112" y="145" fill="#6f6f79" font-family="DM Mono,monospace" font-size="11">same project / new context</text><rect x="112" y="166" width="15" height="15" rx="4" fill="#A9C7FF" stroke="#3a3a43"/><rect x="134" y="166" width="15" height="15" rx="4" fill="#D8F3FF" stroke="#3a3a43"/><rect x="156" y="166" width="15" height="15" rx="4" fill="#19191e" stroke="#3a3a43"/></g><g transform="translate(456 864)"><rect width="380" height="214" rx="16" fill="#19191e" stroke="#2b2b32"/><rect x="0" y="0" width="380" height="4" rx="2" fill="#93A4C7" opacity=".9"/><text x="24" y="32" fill="#93A4C7" font-family="DM Mono,monospace" font-size="12" letter-spacing="1">08 / FOLD MAP</text><text x="24" y="52" fill="#8f8f9c" font-family="Manrope,Arial,sans-serif" font-size="12">маршрут складывается с проектом</text><g transform="translate(34 78) scale(1.5)"><path d="M4 9 L17 4 L31 9 L44 4 V38 L31 43 L17 38 L4 43 Z" fill="none" stroke="#93A4C7" stroke-width="5" stroke-linejoin="round"/><path d="M17 4 V38 M31 9 V43" stroke="#BCA7FF" stroke-width="5"/><circle cx="25" cy="24" r="5" fill="#D8F3FF"/></g><text x="112" y="121" fill="#e8e8ed" font-family="Manrope,Arial,sans-serif" font-size="24" font-weight="800" letter-spacing="1">HOP<tspan fill="#93A4C7">LANE</tspan></text><text x="112" y="145" fill="#6f6f79" font-family="DM Mono,monospace" font-size="11">same project / new context</text><rect x="112" y="166" width="15" height="15" rx="4" fill="#93A4C7" stroke="#3a3a43"/><rect x="134" y="166" width="15" height="15" rx="4" fill="#D8F3FF" stroke="#3a3a43"/><rect x="156" y="166" width="15" height="15" rx="4" fill="#19191e" stroke="#3a3a43"/></g><g transform="translate(48 1110)"><rect width="380" height="214" rx="16" fill="#19191e" stroke="#2b2b32"/><rect x="0" y="0" width="380" height="4" rx="2" fill="#8BD5E8" opacity=".9"/><text x="24" y="32" fill="#8BD5E8" font-family="DM Mono,monospace" font-size="12" letter-spacing="1">09 / THREAD</text><text x="24" y="52" fill="#8f8f9c" font-family="Manrope,Arial,sans-serif" font-size="12">одна нить через все среды</text><g transform="translate(34 78) scale(1.5)"><path d="M5 34 C13 6 22 6 25 24 C28 42 37 42 45 14" fill="none" stroke="#8BD5E8" stroke-width="6" stroke-linecap="round"/><circle cx="5" cy="34" r="5" fill="#D8F3FF"/><circle cx="45" cy="14" r="5" fill="#BCA7FF"/></g><text x="112" y="121" fill="#e8e8ed" font-family="Manrope,Arial,sans-serif" font-size="24" font-weight="800" letter-spacing="1">HOP<tspan fill="#8BD5E8">LANE</tspan></text><text x="112" y="145" fill="#6f6f79" font-family="DM Mono,monospace" font-size="11">same project / new context</text><rect x="112" y="166" width="15" height="15" rx="4" fill="#8BD5E8" stroke="#3a3a43"/><rect x="134" y="166" width="15" height="15" rx="4" fill="#D8F3FF" stroke="#3a3a43"/><rect x="156" y="166" width="15" height="15" rx="4" fill="#19191e" stroke="#3a3a43"/></g><g transform="translate(456 1110)"><rect width="380" height="214" rx="16" fill="#19191e" stroke="#2b2b32"/><rect x="0" y="0" width="380" height="4" rx="2" fill="#B7C8E8" opacity=".9"/><text x="24" y="32" fill="#B7C8E8" font-family="DM Mono,monospace" font-size="12" letter-spacing="1">10 / BRIDGE</text><text x="24" y="52" fill="#8f8f9c" font-family="Manrope,Arial,sans-serif" font-size="12">переход без потери опоры</text><g transform="translate(34 78) scale(1.5)"><path d="M4 38 V32 C4 15 44 15 44 32 V38" fill="none" stroke="#B7C8E8" stroke-width="6" stroke-linecap="round"/><path d="M4 38 H44" stroke="#D8F3FF" stroke-width="5" stroke-linecap="round"/><path d="M14 38 V30 M34 38 V30" stroke="#BCA7FF" stroke-width="5" stroke-linecap="round"/></g><text x="112" y="121" fill="#e8e8ed" font-family="Manrope,Arial,sans-serif" font-size="24" font-weight="800" letter-spacing="1">HOP<tspan fill="#B7C8E8">LANE</tspan></text><text x="112" y="145" fill="#6f6f79" font-family="DM Mono,monospace" font-size="11">same project / new context</text><rect x="112" y="166" width="15" height="15" rx="4" fill="#B7C8E8" stroke="#3a3a43"/><rect x="134" y="166" width="15" height="15" rx="4" fill="#D8F3FF" stroke="#3a3a43"/><rect x="156" y="166" width="15" height="15" rx="4" fill="#19191e" stroke="#3a3a43"/></g><text x="56" y="1392" fill="#686873" font-family="DM Mono,monospace" font-size="11">Direction: treat Hoplane as portability, compatibility and handoff — not infrastructure iconography.</text></svg>